<?xml version="1.0" encoding="utf-8"?>
<!-- Generator: Adobe Illustrator 22.1.0, SVG Export Plug-In . SVG Version: 6.00 Build 0)  -->
<svg version="1.1" id="Capa_1" xmlns="http://www.w3.org/2000/svg" xmlns:xlink="http://www.w3.org/1999/xlink" x="0px" y="0px"
	 viewBox="0 0 41.3 41.3" style="enable-background:new 0 0 41.3 41.3;" xml:space="preserve">
<style type="text/css">
	.st0{fill:#FFFFFF;}
</style>
<path class="st0" d="M20.6,0c5.7,0,10.9,2.3,14.6,6c3.7,3.7,6,8.9,6,14.6s-2.3,10.9-6,14.6c-3.7,3.7-8.9,6-14.6,6S9.8,39,6.1,35.3
	c-3.7-3.7-6-8.9-6-14.6C0,15,2.3,9.8,6.1,6C9.8,2.3,14.9,0,20.6,0L20.6,0z M31.2,19.5c0.6,0,1.1,0.5,1.1,1.1c0,0.6-0.5,1.1-1.1,1.1
	H20.7h0c-0.4,0-0.8-0.2-1-0.6l0,0l0,0l0,0l0,0v0l0,0l0,0l0,0l0,0l0,0v0l0,0l0,0l0,0l0,0l0,0v0l0,0l0,0l0,0v0l0,0l0,0l0,0v0l0,0v0v0
	l0,0l0,0v0l0,0v0l0,0v0l0,0v0l0,0v0l0,0v0l0,0V7.2c0-0.6,0.5-1.1,1.1-1.1s1.1,0.5,1.1,1.1v12.3H31.2z M33.7,7.6
	c-3.3-3.3-7.9-5.4-13-5.4s-9.7,2-13,5.4c-3.3,3.3-5.4,7.9-5.4,13s2.1,9.7,5.4,13C11,37,15.6,39,20.6,39s9.7-2,13-5.4s5.4-7.9,5.4-13
	C39.1,15.6,37,11,33.7,7.6L33.7,7.6z"/>
</svg>
