<?xml version="1.0" encoding="utf-8"?>
<!-- Generator: Adobe Illustrator 22.1.0, SVG Export Plug-In . SVG Version: 6.00 Build 0)  -->
<svg version="1.1" id="Layer_1" xmlns="http://www.w3.org/2000/svg" xmlns:xlink="http://www.w3.org/1999/xlink" x="0px" y="0px"
	 viewBox="0 0 377.1 299" style="enable-background:new 0 0 377.1 299;" xml:space="preserve">
<style type="text/css">
	.st0{fill:#F9D11D;}
</style>
<path class="st0" d="M39.2,0.1h298.7V242c0,0-72.1,56.9-149.4,56.9c-84.8,0-149.4-56.9-149.4-56.9V0.1z"/>
<g>
	<path d="M168.1,171h6.4c0.2-0.7,0.3-0.7,0.5-0.7h-6.6C168.4,170.3,168.3,170.3,168.1,171z"/>
	<path d="M161.4,189h8.1v-0.7h-7.9C161.5,188.2,161.5,189,161.4,189z"/>
	<path d="M246.8,154.1l-1.1,0.1l5.2,4.6h-12c0,0-0.1,0.7-0.1,0.7h12.6l12,10.8h-32.9l-6.2-10.8h9.5c0,0-0.1-0.7-0.1-0.7h-9.7
		l-4.3-7.2h5.1v-0.7h-71.9c-0.2-16.5-2.7-29.4-7.5-38.5c-5.2-9.9-11.4-11.9-12.6-12.2l0,0.1c-0.6-0.2-1.2-0.3-1.8-0.3h-27.7
		c-0.1,0-0.2,0.1-0.3,0.1c-1.8,0-5.2,0.6-8.9,3.5c-6.5,5.2-10.5,15.5-12.1,30.5c-0.9,0.3-2.6,0.5-4.6,0.5l0-0.2l-0.7-3.7
		c0-0.9-0.8-1.6-1.6-1.6c-0.9,0-1.6,0.8-1.6,1.6l0.7,3.7c-1-0.1-2.1-0.2-3.1-0.4c-3.1-0.5-5.1,10.8-2,11.3c1.5,0.3,4.6,0.7,8,0.7
		c4.2,0,9-0.7,12.3-3.1c2.3-1.7,3.7-4.2,4-7c0.9-9.1,2.3-15,4.4-18.7v23.7v13.6V176l17.9-6.6v-9.1h2.9v7.9l17.9-6.6v-0.2l2.1-1.8
		h2.7c0,0,0,0.2,0,0.3c0,0.8-0.1,1.5-0.1,2.3l-74.1,27.4l-1.1-3.1l-2.2,0.8l3.9,10.5l2.2-0.8l-1.1-3.1l72.4-26.8
		c0.1,0.7,0.4,1.4,0.8,2c0.3,0.4,0.6,0.4,0.9,1.1h-3.9l-1.8,0.7h6.6c0.8,0,1.7,0.8,2.7,0.8c0.1,0,0.2,0,0.4,0c1.1,0,2.2-0.1,3-0.9
		h9.4l-9.8,17.2h-12.9v-17.1l-17.9,6.6v10.5h-2.9v-7.8l2.6-2.4l-20.5,7.6v8.8L66.1,222h31.7v3c0,4.9,4.1,8.9,9,8.9c4.9,0,9-4,9-8.9
		v-3h2.9v3c0,4.9,4.1,8.9,9,8.9c4.9,0,9-4,9-8.9v-3h33v-2.2h-33v-4.2l14.4-26.6h3.2c0,0,0.1-0.7,0.1-0.7h-2.7l5-9.3
		c2-5.5,4.9-10.6,7.2-14.8c0.7-1.3,1.9-3.4,2.7-5c-0.4,0.1-0.9,0.4-1.4,0.4h0.7l-6.2,10.8h-8.9c1-1.4,1.7-2.3,1.8-3.9
		c0-0.4,0-0.8,0.1-1.2c0-0.8,0.1-1.6,0.1-2.3l5.8-2.1l-1.6-4.4l-4,1.5c0-0.8,0-1.5,0-2.3c0-1.4,0-2.5,0-4h17.5l-0.1,0.2
		c0.4,0.1,0.7,0.2,1,0.3l0.3-0.5h22.9l-0.1,7.2h-20.1c0,0-0.1,0.7-0.1,0.7h20.2l-0.1,6.5h1.6l-0.1-6.5h27.1l5.9,10.8h-7.3
		c0.1,0,0.2,0,0.3,0.7h7.5l9.3,17.2h-22.2v0.7H239l16.9,30.9h-26.7c0.3,0.7,0.4,1.4,0.5,2.2h94.2L246.8,154.1z M71.6,219.8
		l26.1-23.4v23.4L71.6,219.8L71.6,219.8z M115.7,219.8V189h2.9v30.9H115.7z M136.5,210.5V189h12.2L136.5,210.5z M136.5,154.7v-13.6
		v-20.4c2.9,6.5,5.1,17.3,4.9,35.1l-4.9,4.3V154.7z M139.1,158.8l2.2-2c0,0.7,0,1.3-0.1,2H139.1z M195.6,158.8l-0.1-7.2h22.9
		l4.1,7.2H195.6z M230.8,171H264l18.9,17.2h-42.3L230.8,171z M241.2,189h42.9l34.1,30.9h-59.4L241.2,189z"/>
	<path d="M221.3,219.8h-5.1v2.2h6.3C222.3,222,221.9,221.2,221.3,219.8z"/>
	<path d="M210.5,171h5.3c0.1-0.7,0.2-0.7,0.3-0.7H210C210.2,170.3,210.4,170.3,210.5,171z"/>
	<path d="M215.9,146.6c0.5-5.7,2.4-7.2,8.1-7.6v-0.3c-5.7-0.5-7.6-2.1-8.1-7.9h-0.3c-0.5,5.7-2.4,7.4-8.1,7.9v0.3
		c5.7,0.5,7.7,1.9,8.1,7.6H215.9z"/>
	<path d="M242.7,135.1h0.2c0.4-5,1.9-6.3,6.9-6.7v-0.2c-5-0.4-6.5-1.7-6.9-6.7h-0.2c-0.4,5-2.2,6.3-6.5,6.7v0.2
		C240.5,128.8,242.3,130.1,242.7,135.1z"/>
	<path d="M218.6,181.8h0.2c0.4-5,1.6-6.3,6.6-6.7v-0.2c-5-0.4-6.2-1.7-6.6-6.7h-0.2c-0.4,4.3-1.8,6.3-6.4,6.7c0,0.1,0,0.1,0,0.2
		C216.8,175.5,218.2,176.8,218.6,181.8z"/>
	<path d="M226.9,151.9v0.3c6.5,0.5,8.6,2.3,9.2,8.8h0.3c0.5-6.5,2.7-8.2,9.2-8.8v-0.3c-6.5-0.5-8.6-2.4-9.2-8.9h-0.3
		C235.5,149.5,233.4,151.3,226.9,151.9z"/>
	<path d="M216.1,206.4v4c5.7,5.8,9.8,11,8.6,13.4c-0.4,0.9-2.1,2.2-8.6,1.8v0.9v1.9c0.7,0.1,1.5,0.1,2.2,0.1c6.1,0,8.1-1.7,8.9-3.4
		C228.4,222.6,228.3,218,216.1,206.4z"/>
	<path d="M160.8,199.9c-4.9-11.6,2.5-24.7,7.4-33.3c3.3-5.9,5.3-9.5,3.4-11.6c-1.3-1.6-4-1.9-12.6,1.1l1,2.7c7.7-2.6,9.2-2.2,9.4-2
		c0.4,0.9-2,5.2-3.8,8.4c-5.2,9.1-12.8,23-7.4,35.9c2,4.8,5.6,9.1,11.3,12.8v-3.5C165.2,207.2,162.4,203.8,160.8,199.9z"/>
	<path d="M210.4,177c0-4.8-4-8.8-8.8-8.8h-18.2c-4.8,0-8.9,4.1-8.9,8.8v5.5h35.9V177z"/>
	<path d="M204.7,226.3h9.3v-41.6h-42.3v41.6h8.6v2.4v2.6h24.4v-2.2V226.3z M209.7,189.7v5.7h-22.2v-5.7H209.7z"/>
	<rect x="194.6" y="191.8" width="13.6" height="2.2"/>
	<path d="M173.1,228.6c-1.1,0.6-1.8,1.8-1.8,3.1c0,2,1.6,3.6,3.6,3.6c2,0,3.6-1.6,3.6-3.6c0-1.3-0.7-2.5-1.8-3.1
		c-0.5-0.3-1.1-0.5-1.8-0.5C174.2,228.2,173.6,228.4,173.1,228.6z"/>
	<path d="M210.2,228.2c-1.1,0-2.1,0.5-2.8,1.4c-0.5,0.6-0.8,1.4-0.8,2.2c0,2,1.6,3.6,3.6,3.6c2,0,3.6-1.6,3.6-3.6
		c0-0.5-0.1-0.9-0.3-1.3C213,229.1,211.8,228.2,210.2,228.2z"/>
	<path d="M117.1,96c8.9,0,16.1-7.2,16.1-16.1s-7.2-16.1-16.1-16.1c-8.9,0-16.1,7.2-16.1,16.1S108.2,96,117.1,96z M127.1,85.6
		c-2.1,3.6-5.8,5.6-10.1,5.6s-8-2.1-10.1-5.6C107,85.6,127.1,85.6,127.1,85.6z"/>
	<rect x="59.4" y="175.8" transform="matrix(0.9376 -0.3476 0.3476 0.9376 -63.5467 33.6589)" width="5.3" height="36.4"/>
</g>
</svg>
