<?xml version="1.0" encoding="utf-8"?>
<!-- Generator: Adobe Illustrator 22.1.0, SVG Export Plug-In . SVG Version: 6.00 Build 0)  -->
<svg version="1.1" id="Layer_1" xmlns="http://www.w3.org/2000/svg" xmlns:xlink="http://www.w3.org/1999/xlink" x="0px" y="0px"
	 viewBox="0 0 377.1 299" style="enable-background:new 0 0 377.1 299;" xml:space="preserve">
<style type="text/css">
	.st0{fill:#F9D11D;}
</style>
<path class="st0" d="M39.2,0.1h298.7V242c0,0-72.1,56.9-149.4,56.9c-84.8,0-149.4-56.9-149.4-56.9V0.1z"/>
<g>
	<path d="M230.8,75.2h12.3c1.5,0,2.9,0.1,4.3,0.2V62.1h-20.9v13.2C227.9,75.2,229.4,75.2,230.8,75.2z"/>
	<rect x="103.5" y="200.4" width="44.8" height="8.2"/>
	<rect x="114.7" y="148.3" width="22.4" height="48"/>
	<path d="M229.4,58.2H244c-1.9-19-18-33.9-37.5-33.9h-50c-20.8,0-37.7,16.9-37.7,37.7v82.6h14.4V62.1c0-12.9,10.5-23.3,23.3-23.3h50
		C218,38.8,227.6,47.2,229.4,58.2z"/>
	<path d="M153.9,212.2H98c-7.3,0-13.2,5.9-13.2,13.2V237H167v-11.6C167,218.1,161.1,212.2,153.9,212.2z M107.4,229
		c0,2.1-1.7,3.9-3.9,3.9c-2.1,0-3.9-1.7-3.9-3.9v-8.5c0-2.1,1.7-3.9,3.9-3.9c2.1,0,3.9,1.7,3.9,3.9V229z M129.8,229
		c0,2.1-1.7,3.9-3.9,3.9c-2.1,0-3.9-1.7-3.9-3.9v-8.5c0-2.1,1.7-3.9,3.9-3.9c2.1,0,3.9,1.7,3.9,3.9V229z M152.2,229
		c0,2.1-1.7,3.9-3.9,3.9c-2.1,0-3.9-1.7-3.9-3.9v-8.5c0-2.1,1.7-3.9,3.9-3.9c2.1,0,3.9,1.7,3.9,3.9V229z"/>
	<circle cx="238.2" cy="208.5" r="9.4"/>
	<path d="M243.1,79h-12.3c-27.1,0-49.1,22-49.1,49.1v109.3h110.6V128.2C292.3,101,270.3,79,243.1,79z M221.8,103.9h30.2
		c2.1,0,3.9,1.7,3.9,3.9c0,2.1-1.7,3.9-3.9,3.9h-30.2c-2.1,0-3.9-1.7-3.9-3.9C218,105.7,219.7,103.9,221.8,103.9z M274.1,221.1
		h-71.9v-25.2h71.9L274.1,221.1L274.1,221.1z M218,150.6c0-2.1,1.7-3.9,3.9-3.9h30.2c2.1,0,3.9,1.7,3.9,3.9c0,2.1-1.7,3.9-3.9,3.9
		h-30.2C219.7,154.5,218,152.8,218,150.6z M270.6,139.3h-67.3c-2.1,0-3.9-1.7-3.9-3.9c0-2.1,1.7-3.9,3.9-3.9h67.3
		c2.1,0,3.9,1.7,3.9,3.9C274.5,137.6,272.7,139.3,270.6,139.3z M270.6,126.8h-67.3c-2.1,0-3.9-1.7-3.9-3.9c0-2.1,1.7-3.9,3.9-3.9
		h67.3c2.1,0,3.9,1.7,3.9,3.9C274.5,125.1,272.7,126.8,270.6,126.8z"/>
</g>
</svg>
