<?xml version="1.0" encoding="utf-8"?>
<!-- Generator: Adobe Illustrator 22.1.0, SVG Export Plug-In . SVG Version: 6.00 Build 0)  -->
<svg version="1.1" id="Layer_1" xmlns="http://www.w3.org/2000/svg" xmlns:xlink="http://www.w3.org/1999/xlink" x="0px" y="0px"
	 viewBox="0 0 24 38" style="enable-background:new 0 0 24 38;" xml:space="preserve">
<style type="text/css">
	.st0{fill:#09AA42;}
</style>
<g>
	<path class="st0" d="M21.7,0H2.3C1.3,0,0.4,0.9,0.4,1.9v34.2c0,1,0.9,1.9,1.9,1.9h19.3c1.1,0,1.9-0.9,1.9-1.9V1.9
		C23.6,0.9,22.7,0,21.7,0z M22.8,36.1c0,0.6-0.5,1.1-1.2,1.1H2.3c-0.6,0-1.2-0.5-1.2-1.1V1.9c0-0.6,0.5-1.1,1.2-1.1h19.3
		c0.6,0,1.2,0.5,1.2,1.1V36.1z"/>
	<path class="st0" d="M2.3,32.3h19.3V3.8H2.3V32.3z M3.1,4.6h17.8v27H3.1V4.6z"/>
	<rect x="10.1" y="1.9" class="st0" width="3.9" height="0.8"/>
	<path class="st0" d="M12,32.9c-1.1,0-1.9,0.9-1.9,1.9c0,1,0.9,1.9,1.9,1.9s1.9-0.9,1.9-1.9C13.9,33.7,13.1,32.9,12,32.9z M12,35.9
		c-0.6,0-1.2-0.5-1.2-1.1c0-0.6,0.5-1.1,1.2-1.1s1.2,0.5,1.2,1.1C13.2,35.4,12.6,35.9,12,35.9z"/>
</g>
</svg>
