<?xml version="1.0" encoding="utf-8"?>
<!-- Generator: Adobe Illustrator 22.1.0, SVG Export Plug-In . SVG Version: 6.00 Build 0)  -->
<svg version="1.1" id="Layer_1" xmlns="http://www.w3.org/2000/svg" xmlns:xlink="http://www.w3.org/1999/xlink" x="0px" y="0px"
	 viewBox="0 0 377.1 299" style="enable-background:new 0 0 377.1 299;" xml:space="preserve">
<style type="text/css">
	.st0{fill:#F9D11D;}
</style>
<path class="st0" d="M39.2,0.1h298.7V242c0,0-72.1,56.9-149.4,56.9c-84.8,0-149.4-56.9-149.4-56.9V0.1z"/>
<g>
	<rect x="75.6" y="236.8" width="7.3" height="6.8"/>
	<rect x="294.2" y="236.8" width="7.3" height="6.8"/>
	<path d="M290.7,89.6L188.6,51.7L86.4,89.6c-6.6,2.4-10.8,8.3-10.8,14.8c0,5.3,2.8,10.2,7.4,13.2c4.2,2.7,9.5,3.5,14.4,2.2v75.9
		h-7.3v20.5h7.3v20.5h-7.3v6.8h65.6h65.6h65.6v-6.8h-7.3v-20.5h7.3v-20.5h-7.3v-76c1.5,0.4,3.1,0.7,4.7,0.7c3.4,0,6.8-1,9.7-2.8
		c4.7-3,7.4-7.9,7.4-13.2C301.5,97.8,297.3,92,290.7,89.6z M97.5,202.6h43.7v6.8H97.5V202.6z M104.8,216.3h29.1v20.5h-29.1V216.3z
		 M163.1,236.8v-44.5c0-13.2,11.4-24,25.5-24s25.5,10.7,25.5,24v44.5H163.1z M272.3,236.8h-29.1v-20.5h29.1V236.8z M279.6,209.4
		h-43.7v-6.8h43.7V209.4z M228.6,195.7v20.5h7.3v20.5h-14.6v-44.5c0-17-14.7-30.8-32.8-30.8s-32.8,13.8-32.8,30.8v44.5h-14.6v-20.5
		h7.3v-20.5h-43.7v-78.5l83.8-31.1l83.8,31.1v78.5H228.6z M289.9,111.9c-2.8,1.8-6.2,2.1-9.3,1l-92.1-34.2l-92.1,34.2
		c-3.1,1.2-6.5,0.8-9.3-1c-2.7-1.7-4.3-4.5-4.3-7.5c0-3.7,2.4-7.1,6.2-8.5L188.6,59L288,95.9c3.8,1.4,6.2,4.7,6.2,8.5
		C294.2,107.5,292.7,110.2,289.9,111.9z"/>
	<rect x="170.3" y="202.6" width="7.3" height="6.8"/>
	<path d="M188.6,99.9c-16.1,0-29.1,12.3-29.1,27.4s13.1,27.4,29.1,27.4s29.1-12.3,29.1-27.4S204.6,99.9,188.6,99.9z M210.1,123.8
		h-17.9V107C201.3,108.5,208.5,115.2,210.1,123.8z M184.9,107v16.8H167C168.6,115.2,175.8,108.5,184.9,107z M167,130.7h17.9v16.8
		C175.8,146,168.6,139.3,167,130.7z M192.2,147.5v-16.8h17.9C208.5,139.3,201.3,146,192.2,147.5z"/>
	<path d="M250.5,117h-7.3c0,7.6-6.5,13.7-14.6,13.7v6.8c8,0,14.6,6.1,14.6,13.7h7.3c0-7.6,6.5-13.7,14.6-13.7v-6.8
		C257,130.7,250.5,124.5,250.5,117z M246.8,139.9c-1.6-2.3-3.7-4.3-6.1-5.8c2.4-1.5,4.5-3.5,6.1-5.8c1.6,2.3,3.7,4.3,6.1,5.8
		C250.6,135.6,248.5,137.6,246.8,139.9z"/>
	<path d="M286.9,45.1h-7.3c0,7.6-6.5,13.7-14.6,13.7v6.8c8,0,14.6,6.1,14.6,13.7h7.3c0-7.6,6.5-13.7,14.6-13.7v-6.8
		C293.5,58.8,286.9,52.6,286.9,45.1z M283.3,68c-1.6-2.3-3.7-4.3-6.1-5.8c2.4-1.5,4.5-3.5,6.1-5.8c1.6,2.3,3.7,4.3,6.1,5.8
		C287,63.7,284.9,65.7,283.3,68z"/>
	<path d="M133.9,151.2h-7.3c0,7.6-6.5,13.7-14.6,13.7v6.8c8,0,14.6,6.1,14.6,13.7h7.3c0-7.6,6.5-13.7,14.6-13.7v-6.8
		C140.4,164.9,133.9,158.8,133.9,151.2z M130.3,174.1c-1.6-2.3-3.7-4.3-6.1-5.8c2.4-1.5,4.5-3.5,6.1-5.8c1.6,2.3,3.7,4.3,6.1,5.8
		C134,169.8,131.9,171.8,130.3,174.1z"/>
	<path d="M112.1,65.6h7.3c0-7.6,6.5-13.7,14.6-13.7v-6.8c-8,0-14.6-6.1-14.6-13.7h-7.3c0,7.6-6.5,13.7-14.6,13.7v6.8
		C105.5,51.9,112.1,58.1,112.1,65.6z M115.7,42.7c1.6,2.3,3.7,4.3,6.1,5.8c-2.4,1.5-4.5,3.5-6.1,5.8c-1.6-2.3-3.7-4.3-6.1-5.8
		C112,47,114.1,45,115.7,42.7z"/>
</g>
</svg>
