<?xml version="1.0" encoding="iso-8859-1"?>
<!-- Generator: Adobe Illustrator 19.0.0, SVG Export Plug-In . SVG Version: 6.00 Build 0)  -->
<svg version="1.1" id="Layer_1" xmlns="http://www.w3.org/2000/svg" xmlns:xlink="http://www.w3.org/1999/xlink" x="0px" y="0px"
	 viewBox="0 0 359.35 359.35" style="enable-background:new 0 0 359.35 359.35;" xml:space="preserve">
<g>
	<rect x="205.551" y="89.266" style="fill:#333E48;" width="9.36" height="15.723"/>
	<g>
		<path style="fill:#333E48;" d="M297.641,261.468c-23.736,0-43.05-19.312-43.05-43.051l0.374-62.647
			c0-7.775-6.381-14.156-14.226-14.156h-27.326v-22.463h27.326c20.229,0,36.687,16.458,36.687,36.686l-0.376,62.648
			c0,11.286,9.237,20.522,20.59,20.522c11.354,0,20.591-9.236,20.591-20.59V112.35h22.462v106.067
			C340.694,242.155,321.381,261.468,297.641,261.468z"/>
		<rect x="196.192" y="112.35" style="fill:#5C6670;" width="25.083" height="36.063"/>
		<rect x="316.169" y="99.373" style="fill:#5C6670;" width="26.582" height="33.505"/>
		<path style="fill:#333E48;" d="M359.253,68.202c0.576-3.034-1.479-5.516-4.567-5.516h-50.45c-3.089,0-5.143,2.481-4.565,5.516
			l6.26,32.954c0.576,3.033,3.575,5.517,6.663,5.517h33.737c3.09,0,6.087-2.483,6.663-5.517L359.253,68.202z"/>
	</g>
	<g>
		<g>
			<path style="fill:#E5AB46;" d="M132.926,114.117h-30.984c-21.984,0-39.869-17.886-39.869-39.869V60.627
				c0-21.984,17.885-39.869,39.869-39.869h30.984c21.984,0,39.869,17.885,39.869,39.869v13.621
				C172.796,96.231,154.911,114.117,132.926,114.117z M101.942,39.85c-11.458,0-20.777,9.32-20.777,20.777v13.621
				c0,11.456,9.319,20.776,20.777,20.776h30.984c11.458,0,20.777-9.32,20.777-20.776V60.627c0-11.457-9.319-20.777-20.777-20.777
				H101.942z"/>
		</g>
		<path style="fill:#333E48;" d="M153.704,60.627v13.621c0,11.456-9.319,20.776-20.777,20.776h-30.984
			c-11.458,0-20.777-9.32-20.777-20.776V60.627c0-5.829,2.421-11.096,6.299-14.873H64.961c-1.856,4.599-2.888,9.615-2.888,14.873
			v13.621c0,21.983,17.885,39.869,39.869,39.869h30.984c21.984,0,39.869-17.886,39.869-39.869V60.627
			c0-5.258-1.033-10.274-2.888-14.873h-22.503C151.283,49.531,153.704,54.798,153.704,60.627z"/>
	</g>
	<path style="fill:#E5AB46;" d="M234.548,275.168c2.559,18.353-10.511,33.369-29.042,33.369H29.362
		c-18.531,0-31.601-15.016-29.042-33.369L25.881,91.822c2.557-18.354,19.812-33.369,38.341-33.369h106.426
		c18.529,0,35.786,15.015,38.343,33.369L234.548,275.168z"/>
	<path style="fill:#333E48;" d="M234.548,275.168l-3.881-27.832H4.201L0.32,275.168c-2.559,18.353,10.511,33.369,29.042,33.369
		h176.145C224.038,308.537,237.107,293.521,234.548,275.168z"/>
	<g>
		<circle style="fill:#5C6670;" cx="117.434" cy="295.773" r="42.819"/>
		<circle style="fill:#333E48;" cx="117.434" cy="295.773" r="24.851"/>
	</g>
	<g>
		<path style="fill:#FED771;" d="M166.993,101.619H67.876c-2.792,0-5.054-2.263-5.054-5.054c0-2.792,2.262-5.054,5.054-5.054h99.117
			c2.792,0,5.054,2.262,5.054,5.054C172.047,99.356,169.785,101.619,166.993,101.619z"/>
		<path style="fill:#FED771;" d="M171.922,128.151H62.947c-2.789,0-5.054-2.263-5.054-5.054c0-2.792,2.265-5.054,5.054-5.054
			h108.975c2.789,0,5.054,2.262,5.054,5.054C176.975,125.889,174.711,128.151,171.922,128.151z"/>
		<path style="fill:#FED771;" d="M176.847,154.683H58.019c-2.79,0-5.056-2.262-5.056-5.054c0-2.791,2.266-5.053,5.056-5.053h118.828
			c2.792,0,5.054,2.262,5.054,5.053C181.901,152.421,179.639,154.683,176.847,154.683z"/>
		<path style="fill:#FED771;" d="M181.776,181.215H53.092c-2.793,0-5.054-2.262-5.054-5.054c0-2.79,2.261-5.054,5.054-5.054h128.684
			c2.793,0,5.054,2.264,5.054,5.054C186.83,178.953,184.569,181.215,181.776,181.215z"/>
		<path style="fill:#FED771;" d="M186.706,207.748H48.164c-2.791,0-5.054-2.263-5.054-5.054s2.263-5.054,5.054-5.054h138.542
			c2.79,0,5.053,2.263,5.053,5.054C191.758,205.485,189.496,207.748,186.706,207.748z"/>
	</g>
</g>
<g>
</g>
<g>
</g>
<g>
</g>
<g>
</g>
<g>
</g>
<g>
</g>
<g>
</g>
<g>
</g>
<g>
</g>
<g>
</g>
<g>
</g>
<g>
</g>
<g>
</g>
<g>
</g>
<g>
</g>
</svg>
