<?xml version="1.0" encoding="utf-8"?>
<!-- Generator: Adobe Illustrator 22.1.0, SVG Export Plug-In . SVG Version: 6.00 Build 0)  -->
<svg version="1.1" id="Layer_1" xmlns="http://www.w3.org/2000/svg" xmlns:xlink="http://www.w3.org/1999/xlink" x="0px" y="0px"
	 viewBox="0 0 100 100" style="enable-background:new 0 0 100 100;" xml:space="preserve">
<style type="text/css">
	.st0{fill:#555555;}
</style>
<g>
	<path class="st0" d="M95.9,6.5C93.7,4.1,76.7,0,48,0S2.4,4.1,0.2,6.5C2.4,8.9,19.3,13,48,13S93.7,8.9,95.9,6.5z"/>
	<path class="st0" d="M95.9,11.5c-2.6,1.3-6.5,2.4-10.7,3.3v29.6c0,4.8-3.9,8.7-8.7,8.7c-1.5,0-3-0.4-4.3-1.1
		c-0.2,8-6.7,14.8-15,14.8s-14.8-6.5-15-14.8c-1.7,1.3-4.1,2.2-6.7,2.2c-6.1,0-11.1-5-11.1-11.1v-1.7c-1.7,1.3-4.1,2.2-6.7,2.2
		c-6.1,0-11.1-5-11.1-11.1V13.7C4.3,13,2,12.4,0.2,11.5l-4.3-5v82.6c0,0.2,0,0.4,0,0.4C-2.6,99.8,42.8,100,48,100
		s50.7-0.2,52.2-10.4c0-0.2,0-0.2,0-0.4V6.5C100.2,8.5,98.7,10.2,95.9,11.5z"/>
	<path class="st0" d="M57.2,62c5.9,0,10.7-4.8,10.7-10.7v-7.4c0-1.1,0.9-2.2,2.2-2.2c1.1,0,2.2,1.1,2.2,2.2c0,2.4,2,4.3,4.3,4.3
		c2.4,0,4.3-2,4.3-4.3V15.2c-13.7,2.2-29.8,2.2-32.8,2.2c-3.3,0-22.6,0-36.7-2.8v17.8c0,3.7,3,6.7,6.7,6.7c3.7,0,6.7-3,6.7-6.7
		c0-1.1,1.1-2.2,2.2-2.2c1.3,0,2.2,1.1,2.2,2.2v10.4c0,3.7,3,6.7,6.7,6.7c3.7,0,6.7-3,6.7-6.7c0-1.1,0.9-2.2,2.2-2.2
		s2.2,1.1,2.2,2.2v8.5C46.5,57.4,51.3,62,57.2,62z"/>
</g>
</svg>
