<?xml version="1.0" encoding="utf-8"?>
<!-- Generator: Adobe Illustrator 22.1.0, SVG Export Plug-In . SVG Version: 6.00 Build 0)  -->
<svg version="1.1"
	 id="Layer_1" xmlns:cc="http://creativecommons.org/ns#" xmlns:dc="http://purl.org/dc/elements/1.1/" xmlns:inkscape="http://www.inkscape.org/namespaces/inkscape" xmlns:rdf="http://www.w3.org/1999/02/22-rdf-syntax-ns#" xmlns:sodipodi="http://sodipodi.sourceforge.net/DTD/sodipodi-0.dtd" xmlns:svg="http://www.w3.org/2000/svg"
	 xmlns="http://www.w3.org/2000/svg" xmlns:xlink="http://www.w3.org/1999/xlink" x="0px" y="0px" viewBox="0 0 100 100"
	 style="enable-background:new 0 0 100 100;" xml:space="preserve">
<style type="text/css">
	.st0{fill:#FFFFFF;}
</style>
<g transform="translate(0,-952.36218)">
	<path class="st0" d="M50,955.9c-11.1,0-20.2,9.1-20.2,20.2s9.1,20.2,20.2,20.2s20.2-9.1,20.2-20.2C70.2,964.9,61.1,955.9,50,955.9z
		 M50,960.6c8.6,0,15.4,6.9,15.4,15.4s-6.9,15.4-15.4,15.4s-15.4-6.9-15.4-15.4S41.4,960.6,50,960.6z M50,1001
		c-10.3,0-19.6,2.8-26.5,7.4S12,1019.7,12,1027.1v21.4c0,1.2,1.1,2.4,2.4,2.4h71.2c1.2,0,2.4-1.1,2.4-2.4v-21.4
		c0-7.4-4.6-14.1-11.5-18.7S60.3,1001,50,1001z M50,1005.7c9.4,0,17.9,2.6,23.9,6.6c6,4,9.4,9.3,9.4,14.7v19H16.8v-19
		c0-5.5,3.4-10.7,9.4-14.7C32.1,1008.4,40.6,1005.7,50,1005.7z"/>
</g>
</svg>
